<?xml version="1.0" encoding="UTF-8" standalone="no"?>
<!-- Created with Inkscape (http://www.inkscape.org/) -->

<svg
   xmlns:dc="http://purl.org/dc/elements/1.1/"
   xmlns:cc="http://creativecommons.org/ns#"
   xmlns:rdf="http://www.w3.org/1999/02/22-rdf-syntax-ns#"
   xmlns:svg="http://www.w3.org/2000/svg"
   xmlns="http://www.w3.org/2000/svg"
   xmlns:sodipodi="http://sodipodi.sourceforge.net/DTD/sodipodi-0.dtd"
   xmlns:inkscape="http://www.inkscape.org/namespaces/inkscape"
   width="476.20697mm"
   height="15.398045mm"
   viewBox="0 0 476.20697 15.398045"
   version="1.1"
   id="svg38"
   inkscape:version="0.92.2 (5c3e80d, 2017-08-06)"
   sodipodi:docname="bitproton-coldwallet-logo-object-cust2.svg">
  <defs
     id="defs32" />
  <sodipodi:namedview
     id="base"
     pagecolor="#ffffff"
     bordercolor="#666666"
     borderopacity="1.0"
     inkscape:pageopacity="0.0"
     inkscape:pageshadow="2"
     inkscape:zoom="0.35"
     inkscape:cx="137.47511"
     inkscape:cy="-0.3402288"
     inkscape:document-units="mm"
     inkscape:current-layer="layer1"
     showgrid="false"
     fit-margin-top="0"
     fit-margin-left="0"
     fit-margin-right="0"
     fit-margin-bottom="0"
     inkscape:window-width="1920"
     inkscape:window-height="1027"
     inkscape:window-x="-8"
     inkscape:window-y="-8"
     inkscape:window-maximized="1" />
  <metadata
     id="metadata35">
    <rdf:RDF>
      <cc:Work
         rdf:about="">
        <dc:format>image/svg+xml</dc:format>
        <dc:type
           rdf:resource="http://purl.org/dc/dcmitype/StillImage" />
        <dc:title></dc:title>
      </cc:Work>
    </rdf:RDF>
  </metadata>
  <g
     inkscape:groupmode="layer"
     id="layer2"
     inkscape:label="Layer 2"
     style="display:none"
     transform="translate(144.41856,-92.810206)">
    <rect
       style="fill:#333333;stroke-width:0.26458332"
       id="rect76"
       width="817.94043"
       height="357.56549"
       x="-305.40479"
       y="-31.839287" />
  </g>
  <g
     inkscape:label="Layer 1"
     inkscape:groupmode="layer"
     id="layer1"
     transform="translate(144.41856,-92.810206)">
    <g
       aria-label="BıTPROTON · COLDWALLET"
       transform="matrix(0.26458333,0,0,0.26458333,-149.01097,73.419842)"
       style="font-style:normal;font-variant:normal;font-weight:normal;font-stretch:normal;font-size:85.33333588px;line-height:1.25;font-family:Sofachrome;-inkscape-font-specification:Sofachrome;font-variant-ligatures:normal;font-variant-caps:normal;font-variant-numeric:normal;font-feature-settings:normal;text-align:start;letter-spacing:0px;word-spacing:0px;writing-mode:lr-tb;text-anchor:start;fill:#002d94;fill-opacity:1;stroke:none"
       id="flowRoot815">
      <path
         d="m 19.575823,131.48375 q -2.218667,0 -2.218667,-2.304 V 75.505084 q 0,-2.218667 2.218667,-2.218667 h 74.069336 q 8.533331,0 12.714671,3.925334 4.26666,3.84 4.26666,10.752 0,2.645334 -0.768,4.522667 -0.68266,1.877333 -1.70666,3.157333 -1.024,1.28 -2.21867,2.048 -1.19467,0.768 -2.048,1.194667 1.36533,0.426667 2.98667,1.706662 1.62133,1.19467 2.98666,3.15734 1.36534,1.87733 2.21867,4.52267 0.93867,2.56 0.93867,5.71733 0,3.24267 -1.19467,6.4 -1.19467,3.072 -3.75467,5.54667 -2.56,2.47466 -6.48533,4.01066 -3.925335,1.536 -9.386668,1.536 z m 38.229335,-26.70933 q -2.218667,0 -2.218667,-2.21867 v -5.546665 q 0,-2.218667 2.218667,-2.218667 h 13.909333 q 4.266667,0 5.802667,-1.621333 1.621334,-1.621334 1.621334,-4.181334 0,-2.56 -1.621334,-4.096 -1.536,-1.621333 -5.802667,-1.621333 h -21.504 v 38.144002 h 20.053334 q 4.864,0 6.997333,-2.13333 2.133334,-2.21867 2.133334,-6.31467 0,-4.18133 -2.133334,-6.144 -2.133333,-2.048 -6.997333,-2.048 z"
         style="fill:#002d94;fill-opacity:1"
         id="path4908" />
      <path
         d="m 121.56783,131.48375 z m 2.21866,0 q -2.21866,0 -2.21866,-2.304 V 75.505084 q 0,-2.218667 2.21866,-2.218667 h 29.44 q 2.21867,0 2.21867,2.218667 v 53.674666 q 0,2.304 -2.21867,2.304 z"
         style="fill:#002d94;fill-opacity:1"
         id="path4910" />
      <path
         d="m 189.37983,131.48375 q -1.62133,0 -1.62133,-1.10933 V 83.270418 h -24.91734 q -1.62133,0 -1.62133,-0.938667 v -7.936 q 0,-1.109334 1.62133,-1.109334 h 83.712 q 1.62134,0 1.62134,1.109334 v 7.936 q 0,0.938667 -1.62134,0.938667 H 221.5505 v 47.104002 q 0,1.10933 -1.536,1.10933 z"
         style="fill:#002d94;fill-opacity:1"
         id="path4912" />
      <path
         d="m 292.98782,110.91842 q -2.21866,0 -2.21866,-2.304 v -5.46134 q 0,-2.304 2.21866,-2.304 h 10.92267 q 2.048,0 3.75467,-0.42666 1.792,-0.512002 3.072,-1.536002 1.28,-1.024 2.048,-2.645333 0.768,-1.706667 0.768,-4.181334 0,-4.522667 -2.816,-6.656 -2.816,-2.133333 -6.82667,-2.133333 h -18.26133 v 45.909332 q 0,2.304 -2.304,2.304 h -29.26934 q -2.21866,0 -2.21866,-2.304 V 75.505084 q 0,-2.218667 2.21866,-2.218667 h 72.96001 q 4.18133,0 7.85066,1.28 3.66934,1.28 6.31467,3.754667 2.73067,2.389334 4.26667,5.973334 1.536,3.584 1.536,8.106667 0,4.608 -1.70667,8.106665 -1.70667,3.41333 -4.69333,5.71733 -2.98667,2.30401 -7.08267,3.49867 -4.01067,1.19467 -8.704,1.19467 z"
         style="fill:#002d94;fill-opacity:1"
         id="path4914" />
      <path
         d="m 424.73985,131.48375 q -3.41334,0 -5.632,-2.304 l -25.68534,-26.368 q -0.68267,-0.68267 -1.10933,-1.28 -0.34134,-0.68267 -0.34134,-1.877332 v -2.645333 q 0,-2.218667 2.21867,-2.218667 h 11.69067 q 4.096,0 6.05867,-1.536 2.048,-1.536 2.048,-4.266667 0,-5.717333 -8.10667,-5.717333 h -19.02934 v 45.909332 q 0,2.304 -2.304,2.304 h -29.26933 q -2.304,0 -2.304,-2.304 V 75.505084 q 0,-2.218667 2.304,-2.218667 h 74.58134 q 3.84,0 7.168,1.109334 3.328,1.024 5.71733,2.986666 2.47467,1.962667 3.84,4.693334 1.36533,2.730667 1.36533,6.058667 0,3.584 -1.36533,6.485333 -1.28,2.816 -3.584,4.864 -2.21867,2.047999 -5.29067,3.327999 -2.98666,1.28 -6.4,1.792 l 23.552,24.14934 q 0.59734,0.512 0.59734,1.36533 0,0.512 -0.42667,0.93867 -0.34133,0.42666 -1.10933,0.42666 z"
         style="fill:#002d94;fill-opacity:1"
         id="path4916" />
      <path
         d="m 483.09851,131.48375 q -6.22933,0 -11.43467,-2.21866 -5.12,-2.21867 -8.87466,-6.144 -3.66934,-3.92534 -5.71734,-9.216 -2.048,-5.376 -2.048,-11.52001 0,-6.314662 1.96267,-11.605329 2.048,-5.376 5.71733,-9.216 3.66934,-3.925334 8.87467,-6.058667 5.20533,-2.218667 11.52,-2.218667 h 41.81334 q 6.4,0 11.52,2.218667 5.20533,2.218667 8.87466,6.144 3.75467,3.84 5.71734,9.216001 2.048,5.290666 2.048,11.519995 0,6.14401 -2.048,11.52001 -2.048,5.29066 -5.80267,9.216 -3.66933,3.84 -8.87467,6.144 -5.12,2.21866 -11.43466,2.21866 z m 35.92534,-34.901332 q 0,-3.925333 -0.512,-6.485333 -0.512,-2.560001 -1.70667,-4.096001 -1.19467,-1.536 -3.15733,-2.133333 -1.87734,-0.597333 -4.69334,-0.597333 h -11.60533 q -2.56,0 -4.352,0.682666 -1.70667,0.597334 -2.90134,2.133334 -1.10933,1.536 -1.62133,4.096 -0.512,2.56 -0.512,6.4 v 9.301332 q 0,8.61867 2.21867,12.11734 2.304,3.41333 7.168,3.41333 h 11.60533 q 2.64534,0 4.52267,-0.768 1.87733,-0.85333 3.072,-2.64533 1.28,-1.792 1.87733,-4.77867 0.59734,-2.98667 0.59734,-7.33867 z"
         style="fill:#002d94;fill-opacity:1"
         id="path4918" />
      <path
         d="m 581.21316,131.48375 q -1.62134,0 -1.62134,-1.10933 V 83.270418 h -24.91733 q -1.62133,0 -1.62133,-0.938667 v -7.936 q 0,-1.109334 1.62133,-1.109334 h 83.712 q 1.62134,0 1.62134,1.109334 v 7.936 q 0,0.938667 -1.62134,0.938667 h -25.00267 v 47.104002 q 0,1.10933 -1.536,1.10933 z"
         style="fill:#002d94;fill-opacity:1"
         id="path4920" />
      <path
         d="m 667.93182,131.48375 q -6.22933,0 -11.43466,-2.21866 -5.12,-2.21867 -8.87467,-6.144 -3.66933,-3.92534 -5.71733,-9.216 -2.048,-5.376 -2.048,-11.52001 0,-6.314662 1.96266,-11.605329 2.048,-5.376 5.71734,-9.216 3.66933,-3.925334 8.87466,-6.058667 5.20534,-2.218667 11.52,-2.218667 h 41.81334 q 6.4,0 11.52,2.218667 5.20533,2.218667 8.87467,6.144 3.75466,3.84 5.71733,9.216001 2.048,5.290666 2.048,11.519995 0,6.14401 -2.048,11.52001 -2.048,5.29066 -5.80267,9.216 -3.66933,3.84 -8.87466,6.144 -5.12,2.21866 -11.43467,2.21866 z m 35.92534,-34.901332 q 0,-3.925333 -0.512,-6.485333 -0.512,-2.560001 -1.70667,-4.096001 -1.19467,-1.536 -3.15733,-2.133333 -1.87734,-0.597333 -4.69334,-0.597333 h -11.60533 q -2.56,0 -4.352,0.682666 -1.70667,0.597334 -2.90133,2.133334 -1.10934,1.536 -1.62134,4.096 -0.512,2.56 -0.512,6.4 v 9.301332 q 0,8.61867 2.21867,12.11734 2.304,3.41333 7.168,3.41333 h 11.60533 q 2.64534,0 4.52267,-0.768 1.87733,-0.85333 3.072,-2.64533 1.28,-1.792 1.87733,-4.77867 0.59734,-2.98667 0.59734,-7.33867 z"
         style="fill:#002d94;fill-opacity:1"
         id="path4922" />
      <path
         d="m 837.97585,131.48375 q -2.56,0 -4.52267,-0.34133 -1.87733,-0.34133 -4.69333,-1.36533 l -68.01067,-25.42934 v 24.832 q 0,2.304 -2.304,2.304 h -11.008 q -2.304,0 -2.304,-2.304 V 75.505084 q 0,-2.218667 2.304,-2.218667 h 10.496 q 1.36533,0 2.47466,0.08533 1.10934,0 2.13334,0.170666 1.024,0.170667 2.048,0.512 1.10933,0.341334 2.47466,0.853334 l 63.48801,24.490667 V 75.505084 q 0,-2.218667 2.304,-2.218667 h 11.008 q 2.304,0 2.304,2.218667 v 53.674666 q 0,2.304 -2.304,2.304 z"
         style="fill:#002d94;fill-opacity:1"
         id="path4924" />
      <path
         d="m 888.81451,113.22242 q -3.84,0 -3.84,-3.75467 V 97.094418 q 0,-3.754667 3.84,-3.754667 h 13.568 q 3.84,0 3.84,3.754667 v 12.373332 q 0,3.75467 -3.84,3.75467 z"
         style="fill:#002d94;fill-opacity:1"
         id="path4926" />
      <path
         d="m 968.94118,131.48375 q -5.376,0 -9.984,-2.13333 -4.52267,-2.21867 -7.85067,-6.05867 -3.328,-3.92533 -5.20533,-9.216 -1.87734,-5.376 -1.87734,-11.69067 0,-6.229329 1.792,-11.519995 1.792,-5.376001 5.03467,-9.301334 3.24267,-3.925334 7.85067,-6.058667 4.608,-2.218667 10.24,-2.218667 h 52.56532 q 0.8533,0 0.8533,0.853334 v 1.962666 q 0,0.768 -0.8533,0.768 h -47.53066 q -4.52266,0 -8.10666,1.792 -3.584,1.706667 -6.144,5.034667 -2.47467,3.242667 -3.84,8.021334 -1.36534,4.693333 -1.36534,10.666662 0,12.20267 5.20534,18.85867 5.29066,6.57067 14.25066,6.57067 h 47.61596 q 0.8534,0 0.8534,0.93867 v 1.87733 q 0,0.85333 -0.8534,0.85333 z"
         style="font-style:normal;font-variant:normal;font-weight:normal;font-stretch:normal;font-family:SofachromeW00-ExtraLight;-inkscape-font-specification:SofachromeW00-ExtraLight;fill:#002d94;fill-opacity:1"
         id="path4928" />
      <path
         d="m 1052.9412,131.48375 q -5.5467,0 -10.1547,-2.21866 -4.608,-2.21867 -7.936,-6.144 -3.2427,-3.92534 -5.0347,-9.216 -1.792,-5.376 -1.792,-11.52001 0,-6.314662 1.792,-11.605329 1.792,-5.376 5.0347,-9.216 3.2427,-3.925334 7.8507,-6.058667 4.608,-2.218667 10.24,-2.218667 h 37.12 q 5.632,0 10.24,2.218667 4.608,2.218667 7.8506,6.144 3.328,3.84 5.12,9.216001 1.792,5.290666 1.792,11.519995 0,6.14401 -1.8773,11.52001 -1.792,5.29066 -5.12,9.216 -3.2427,3.84 -7.8507,6.144 -4.608,2.21866 -10.1546,2.21866 z m 33.1093,-3.66933 q 4.4373,0 8.0213,-1.792 3.584,-1.792 6.0587,-5.12 2.56,-3.328 3.9253,-8.02133 1.3654,-4.69334 1.3654,-10.49601 0,-5.802662 -1.28,-10.495995 -1.28,-4.778667 -3.7547,-8.106667 -2.3893,-3.328 -6.0587,-5.120001 -3.584,-1.792 -8.2773,-1.792 h -29.5253 q -9.0454,0 -14.1654,6.741334 -5.0346,6.741334 -5.0346,18.773329 0,5.80267 1.3653,10.49601 1.3653,4.69333 3.84,8.02133 2.4747,3.328 6.0587,5.12 3.584,1.792 7.936,1.792 z"
         style="font-style:normal;font-variant:normal;font-weight:normal;font-stretch:normal;font-family:SofachromeW00-ExtraLight;-inkscape-font-specification:SofachromeW00-ExtraLight;fill:#002d94;fill-opacity:1"
         id="path4930" />
      <path
         d="m 1144.1452,131.48375 q -5.632,0 -9.8133,-1.792 -4.1814,-1.792 -6.9974,-4.94933 -2.7306,-3.24267 -4.096,-7.59467 -1.28,-4.43733 -1.28,-9.728 V 74.139751 q 0,-0.853334 0.6827,-0.853334 h 8.7893 q 0.8534,0 0.8534,0.853334 v 33.621339 q 0,4.52266 1.024,8.27733 1.024,3.66933 3.1573,6.31467 2.2187,2.64533 5.4613,4.096 3.2427,1.36533 7.7654,1.36533 h 45.312 q 0.768,0 0.768,0.93867 v 1.87733 q 0,0.85333 -0.768,0.85333 z"
         style="font-style:normal;font-variant:normal;font-weight:normal;font-stretch:normal;font-family:SofachromeW00-ExtraLight;-inkscape-font-specification:SofachromeW00-ExtraLight;fill:#002d94;fill-opacity:1"
         id="path4932" />
      <path
         d="m 1201.1452,131.48375 q -1.6213,0 -1.6213,-1.70666 V 74.993084 q 0,-1.706667 1.6213,-1.706667 h 61.184 q 5.632,0 10.24,2.218667 4.608,2.218667 7.8507,6.144 3.2427,3.84 5.0347,9.216001 1.792,5.290666 1.792,11.519995 0,6.31467 -1.8774,11.69067 -1.8773,5.29067 -5.2053,9.216 -3.328,3.84 -7.936,6.05867 -4.5227,2.13333 -9.8987,2.13333 z m 56.2347,-3.66933 q 9.3013,0 14.2507,-6.57067 5.0346,-6.57066 5.0346,-18.85867 0,-12.287995 -4.864,-18.858662 -4.864,-6.656001 -14.4213,-6.656001 h -48.2987 v 50.944003 z"
         style="font-style:normal;font-variant:normal;font-weight:normal;font-stretch:normal;font-family:SofachromeW00-ExtraLight;-inkscape-font-specification:SofachromeW00-ExtraLight;fill:#002d94;fill-opacity:1"
         id="path4934" />
      <path
         d="m 1392.3746,131.48375 q -1.1947,0 -1.9627,-1.10933 l -29.7813,-50.688002 -30.976,50.688002 q -0.4267,0.68267 -0.9387,0.93867 -0.512,0.17066 -0.9387,0.17066 h -1.4506 q -0.5974,0 -1.1094,-0.17066 -0.4266,-0.256 -0.9386,-0.93867 l -38.4854,-55.893336 q -0.085,-0.170667 -0.085,-0.512 0,-0.682667 0.768,-0.682667 h 8.5333 q 0.512,0 1.024,0.170667 0.512,0.170667 0.768,0.597333 l 33.536,50.090673 30.72,-50.090673 q 0.3414,-0.768 1.6214,-0.768 h 1.7066 q 1.28,0 1.7067,0.768 l 29.7813,50.688003 31.4027,-50.688003 q 0.512,-0.768 1.3653,-0.768 h 1.536 q 0.6827,0 0.6827,0.682667 0,0.170667 -0.1707,0.512 l -34.9013,55.893336 q -0.4267,0.68267 -1.024,0.93867 -0.512,0.17066 -1.024,0.17066 z"
         style="font-style:normal;font-variant:normal;font-weight:normal;font-stretch:normal;font-family:SofachromeW00-ExtraLight;-inkscape-font-specification:SofachromeW00-ExtraLight;fill:#002d94;fill-opacity:1"
         id="path4936" />
      <path
         d="m 1497.9119,131.48375 q -1.024,0 -1.792,-0.768 l -44.032,-50.858666 -41.8987,47.957336 h 63.5733 q 0.9387,0 0.9387,0.93867 v 1.87733 q 0,0.85333 -0.9387,0.85333 h -68.6933 q -1.1947,0 -1.1947,-1.024 0,-0.68266 0.4267,-1.10933 l 48.896,-55.040003 q 0.8533,-1.024 2.048,-1.024 h 1.4507 q 1.1946,0 2.1333,1.024 l 48.896,55.978673 q 0.3413,0.34133 0.3413,0.59733 0,0.59733 -0.8533,0.59733 z"
         style="font-style:normal;font-variant:normal;font-weight:normal;font-stretch:normal;font-family:SofachromeW00-ExtraLight;-inkscape-font-specification:SofachromeW00-ExtraLight;fill:#002d94;fill-opacity:1"
         id="path4938" />
      <path
         d="m 1528.8118,131.48375 q -5.632,0 -9.8133,-1.792 -4.1813,-1.792 -6.9973,-4.94933 -2.7307,-3.24267 -4.096,-7.59467 -1.28,-4.43733 -1.28,-9.728 V 74.139751 q 0,-0.853334 0.6826,-0.853334 h 8.7894 q 0.8533,0 0.8533,0.853334 v 33.621339 q 0,4.52266 1.024,8.27733 1.024,3.66933 3.1573,6.31467 2.2187,2.64533 5.4614,4.096 3.2426,1.36533 7.7653,1.36533 h 45.312 q 0.768,0 0.768,0.93867 v 1.87733 q 0,0.85333 -0.768,0.85333 z"
         style="font-style:normal;font-variant:normal;font-weight:normal;font-stretch:normal;font-family:SofachromeW00-ExtraLight;-inkscape-font-specification:SofachromeW00-ExtraLight;fill:#002d94;fill-opacity:1"
         id="path4940" />
      <path
         d="m 1605.3118,131.48375 q -5.632,0 -9.8133,-1.792 -4.1813,-1.792 -6.9973,-4.94933 -2.7307,-3.24267 -4.096,-7.59467 -1.28,-4.43733 -1.28,-9.728 V 74.139751 q 0,-0.853334 0.6826,-0.853334 h 8.7894 q 0.8533,0 0.8533,0.853334 v 33.621339 q 0,4.52266 1.024,8.27733 1.024,3.66933 3.1573,6.31467 2.2187,2.64533 5.4614,4.096 3.2426,1.36533 7.7653,1.36533 h 45.312 q 0.768,0 0.768,0.93867 v 1.87733 q 0,0.85333 -0.768,0.85333 z"
         style="font-style:normal;font-variant:normal;font-weight:normal;font-stretch:normal;font-family:SofachromeW00-ExtraLight;-inkscape-font-specification:SofachromeW00-ExtraLight;fill:#002d94;fill-opacity:1"
         id="path4942" />
      <path
         d="m 1680.7745,131.48375 q -5.376,0 -9.984,-2.13333 -4.5227,-2.21867 -7.8507,-6.05867 -3.328,-3.92533 -5.2053,-9.216 -1.8773,-5.376 -1.8773,-11.69067 0,-6.229329 1.792,-11.519995 1.792,-5.376001 5.0346,-9.301334 3.2427,-3.925334 7.8507,-6.058667 4.608,-2.218667 10.24,-2.218667 h 53.504 q 0.8533,0 0.8533,0.853334 v 1.962666 q 0,0.768 -0.8533,0.768 h -48.4693 q -4.5227,0 -8.1067,1.792 -3.584,1.706667 -6.144,5.034667 -2.4747,3.242667 -3.84,8.021334 -1.3653,4.693333 -1.3653,10.666662 0,12.20267 5.2053,18.85867 5.2907,6.57067 14.2507,6.57067 h 48.5546 q 0.8534,0 0.8534,0.93867 v 1.87733 q 0,0.85333 -0.8534,0.85333 z m -6.0587,-30.03733 q -0.768,0 -0.768,-0.85334 v -1.877329 q 0,-0.938666 0.768,-0.938666 h 58.7947 q 0.9387,0 0.9387,0.682666 v 2.389329 q 0,0.59734 -0.9387,0.59734 z"
         style="font-style:normal;font-variant:normal;font-weight:normal;font-stretch:normal;font-family:SofachromeW00-ExtraLight;-inkscape-font-specification:SofachromeW00-ExtraLight;fill:#002d94;fill-opacity:1"
         id="path4944" />
      <path
         d="m 1774.5278,131.48375 q -0.6826,0 -0.6826,-0.512 V 76.870417 h -33.1094 q -0.6826,0 -0.6826,-0.512 v -2.474666 q 0,-0.597334 0.6826,-0.597334 h 75.776 q 0.6827,0 0.6827,0.597334 v 2.474666 q 0,0.512 -0.6827,0.512 h -33.024 v 54.101333 q 0,0.512 -0.6826,0.512 z"
         style="font-style:normal;font-variant:normal;font-weight:normal;font-stretch:normal;font-family:SofachromeW00-ExtraLight;-inkscape-font-specification:SofachromeW00-ExtraLight;fill:#002d94;fill-opacity:1"
         id="path4946" />
    </g>
  </g>
</svg>
